<svg width="100" height="50" viewBox="0 0 100 50" fill="none" xmlns="http://www.w3.org/2000/svg">
<path d="M28 16H19.0476C17.943 16 17.0476 16.8954 17.0476 18V32M17.0476 32L20.0952 28.9231M17.0476 32L14 28.9231" stroke="white" stroke-width="1.5" stroke-linecap="round" stroke-linejoin="round"/>
<path d="M22 34H30.9524C32.057 34 32.9524 33.1046 32.9524 32V18M32.9524 18L29.9048 21.0769M32.9524 18L36 21.0769" stroke="white" stroke-width="1.5" stroke-linecap="round" stroke-linejoin="round"/>
<path d="M78 16H69.0476C67.943 16 67.0476 16.8954 67.0476 18V32M67.0476 32L70.0952 28.9231M67.0476 32L64 28.9231" stroke="#BF0B34" stroke-width="1.5" stroke-linecap="round" stroke-linejoin="round"/>
<path d="M72 34H80.9524C82.057 34 82.9524 33.1046 82.9524 32V18M82.9524 18L79.9048 21.0769M82.9524 18L86 21.0769" stroke="#BF0B34" stroke-width="1.5" stroke-linecap="round" stroke-linejoin="round"/>
</svg>
