<svg width="50" height="64" viewBox="0 0 50 64" fill="none" xmlns="http://www.w3.org/2000/svg">
<circle cx="8" cy="40" r="7" fill="#BF0B34"/>
<path d="M7.99996 43.1439V45M7.99996 43.1439L9.13644 44.0909M7.99996 43.1439L6.86347 44.0909M7.99996 43.1439V36.8561M7.99996 35V36.8561M7.99996 36.8561L9.13644 35.9091M7.99996 36.8561L6.86347 35.9091M5.48493 38.428L4.0001 37.5M5.48493 38.428L4.15912 39.02M5.48493 38.428L5.29561 36.8891M5.48493 38.428L10.5152 41.572M12 42.5L10.5152 41.572M10.5152 41.572L10.7045 43.1109M10.5152 41.572L11.841 40.98M5.48483 41.572L4 42.5M5.48483 41.572L5.29551 43.1109M5.48483 41.572L4.15902 40.98M5.48483 41.572L10.5151 38.428M11.9999 37.5L10.5151 38.428M10.5151 38.428L11.8409 39.02M10.5151 38.428L10.7044 36.8891" stroke="white" stroke-width="0.7" stroke-linecap="round"/>
<circle cx="25" cy="40" r="7.25" fill="white" stroke="#C0C0C0" stroke-width="0.5"/>
<path d="M24.9999 43.1439V45M24.9999 43.1439L26.2627 44.0909M24.9999 43.1439L23.7372 44.0909M24.9999 43.1439V36.8561M24.9999 35V36.8561M24.9999 36.8561L26.2627 35.9091M24.9999 36.8561L23.7372 35.9091M22.2055 38.428L20.5557 37.5M22.2055 38.428L20.7323 39.02M22.2055 38.428L21.9951 36.8891M22.2055 38.428L27.7946 41.572M29.4444 42.5L27.7946 41.572M27.7946 41.572L28.005 43.1109M27.7946 41.572L29.2677 40.98M22.2054 41.572L20.5555 42.5M22.2054 41.572L21.995 43.1109M22.2054 41.572L20.7322 40.98M22.2054 41.572L27.7945 38.428M29.4443 37.5L27.7945 38.428M27.7945 38.428L29.2676 39.02M27.7945 38.428L28.0049 36.8891" stroke="#C0C0C0" stroke-width="0.7" stroke-linecap="round"/>
<circle cx="42" cy="40" r="7.25" fill="white" stroke="#C0C0C0" stroke-width="0.5"/>
<path d="M41.9999 43.1439V45M41.9999 43.1439L43.2627 44.0909M41.9999 43.1439L40.7372 44.0909M41.9999 43.1439V36.8561M41.9999 35V36.8561M41.9999 36.8561L43.2627 35.9091M41.9999 36.8561L40.7372 35.9091M39.2055 38.428L37.5557 37.5M39.2055 38.428L37.7323 39.02M39.2055 38.428L38.9951 36.8891M39.2055 38.428L44.7946 41.572M46.4444 42.5L44.7946 41.572M44.7946 41.572L45.005 43.1109M44.7946 41.572L46.2677 40.98M39.2054 41.572L37.5555 42.5M39.2054 41.572L38.995 43.1109M39.2054 41.572L37.7322 40.98M39.2054 41.572L44.7945 38.428M46.4443 37.5L44.7945 38.428M44.7945 38.428L46.2676 39.02M44.7945 38.428L45.0049 36.8891" stroke="#C0C0C0" stroke-width="0.7" stroke-linecap="round"/>
<circle cx="8" cy="24" r="7" fill="#BF0B34"/>
<path d="M7.99996 27.1439V29M7.99996 27.1439L9.13644 28.0909M7.99996 27.1439L6.86347 28.0909M7.99996 27.1439V20.8561M7.99996 19V20.8561M7.99996 20.8561L9.13644 19.9091M7.99996 20.8561L6.86347 19.9091M5.48493 22.428L4.0001 21.5M5.48493 22.428L4.15912 23.02M5.48493 22.428L5.29561 20.8891M5.48493 22.428L10.5152 25.572M12 26.5L10.5152 25.572M10.5152 25.572L10.7045 27.1109M10.5152 25.572L11.841 24.98M5.48483 25.572L4 26.5M5.48483 25.572L5.29551 27.1109M5.48483 25.572L4.15902 24.98M5.48483 25.572L10.5151 22.428M11.9999 21.5L10.5151 22.428M10.5151 22.428L11.8409 23.02M10.5151 22.428L10.7044 20.8891" stroke="white" stroke-width="0.7" stroke-linecap="round"/>
<circle cx="25" cy="24" r="7" fill="#BF0B34"/>
<path d="M25 27.1439V29M25 27.1439L26.1364 28.0909M25 27.1439L23.8635 28.0909M25 27.1439V20.8561M25 19V20.8561M25 20.8561L26.1364 19.9091M25 20.8561L23.8635 19.9091M22.4849 22.428L21.0001 21.5M22.4849 22.428L21.1591 23.02M22.4849 22.428L22.2956 20.8891M22.4849 22.428L27.5152 25.572M29 26.5L27.5152 25.572M27.5152 25.572L27.7045 27.1109M27.5152 25.572L28.841 24.98M22.4848 25.572L21 26.5M22.4848 25.572L22.2955 27.1109M22.4848 25.572L21.159 24.98M22.4848 25.572L27.5151 22.428M28.9999 21.5L27.5151 22.428M27.5151 22.428L28.8409 23.02M27.5151 22.428L27.7044 20.8891" stroke="white" stroke-width="0.7" stroke-linecap="round"/>
<circle cx="42" cy="24" r="7.25" fill="white" stroke="#C0C0C0" stroke-width="0.5"/>
<path d="M41.9999 27.1439V29M41.9999 27.1439L43.2627 28.0909M41.9999 27.1439L40.7372 28.0909M41.9999 27.1439V20.8561M41.9999 19V20.8561M41.9999 20.8561L43.2627 19.9091M41.9999 20.8561L40.7372 19.9091M39.2055 22.428L37.5557 21.5M39.2055 22.428L37.7323 23.02M39.2055 22.428L38.9951 20.8891M39.2055 22.428L44.7946 25.572M46.4444 26.5L44.7946 25.572M44.7946 25.572L45.005 27.1109M44.7946 25.572L46.2677 24.98M39.2054 25.572L37.5555 26.5M39.2054 25.572L38.995 27.1109M39.2054 25.572L37.7322 24.98M39.2054 25.572L44.7945 22.428M46.4443 21.5L44.7945 22.428M44.7945 22.428L46.2676 23.02M44.7945 22.428L45.0049 20.8891" stroke="#C0C0C0" stroke-width="0.7" stroke-linecap="round"/>
<circle cx="8" cy="8" r="7" fill="#BF0B34"/>
<path d="M7.99996 11.1439V13M7.99996 11.1439L9.13644 12.0909M7.99996 11.1439L6.86347 12.0909M7.99996 11.1439V4.85606M7.99996 3V4.85606M7.99996 4.85606L9.13644 3.90909M7.99996 4.85606L6.86347 3.90909M5.48493 6.42803L4.0001 5.5M5.48493 6.42803L4.15912 7.02001M5.48493 6.42803L5.29561 4.88908M5.48493 6.42803L10.5152 9.57197M12 10.5L10.5152 9.57197M10.5152 9.57197L10.7045 11.1109M10.5152 9.57197L11.841 8.97999M5.48483 9.57197L4 10.5M5.48483 9.57197L5.29551 11.1109M5.48483 9.57197L4.15902 8.97999M5.48483 9.57197L10.5151 6.42803M11.9999 5.5L10.5151 6.42803M10.5151 6.42803L11.8409 7.02001M10.5151 6.42803L10.7044 4.88908" stroke="white" stroke-width="0.7" stroke-linecap="round"/>
<circle cx="25" cy="8" r="7" fill="#BF0B34"/>
<path d="M25 11.1439V13M25 11.1439L26.1364 12.0909M25 11.1439L23.8635 12.0909M25 11.1439V4.85606M25 3V4.85606M25 4.85606L26.1364 3.90909M25 4.85606L23.8635 3.90909M22.4849 6.42803L21.0001 5.5M22.4849 6.42803L21.1591 7.02001M22.4849 6.42803L22.2956 4.88908M22.4849 6.42803L27.5152 9.57197M29 10.5L27.5152 9.57197M27.5152 9.57197L27.7045 11.1109M27.5152 9.57197L28.841 8.97999M22.4848 9.57197L21 10.5M22.4848 9.57197L22.2955 11.1109M22.4848 9.57197L21.159 8.97999M22.4848 9.57197L27.5151 6.42803M28.9999 5.5L27.5151 6.42803M27.5151 6.42803L28.8409 7.02001M27.5151 6.42803L27.7044 4.88908" stroke="white" stroke-width="0.7" stroke-linecap="round"/>
<circle cx="42" cy="8" r="7" fill="#BF0B34"/>
<path d="M42 11.1439V13M42 11.1439L43.1364 12.0909M42 11.1439L40.8635 12.0909M42 11.1439V4.85606M42 3V4.85606M42 4.85606L43.1364 3.90909M42 4.85606L40.8635 3.90909M39.4849 6.42803L38.0001 5.5M39.4849 6.42803L38.1591 7.02001M39.4849 6.42803L39.2956 4.88908M39.4849 6.42803L44.5152 9.57197M46 10.5L44.5152 9.57197M44.5152 9.57197L44.7045 11.1109M44.5152 9.57197L45.841 8.97999M39.4848 9.57197L38 10.5M39.4848 9.57197L39.2955 11.1109M39.4848 9.57197L38.159 8.97999M39.4848 9.57197L44.5151 6.42803M45.9999 5.5L44.5151 6.42803M44.5151 6.42803L45.8409 7.02001M44.5151 6.42803L44.7044 4.88908" stroke="white" stroke-width="0.7" stroke-linecap="round"/>
<circle cx="8" cy="56" r="7.25" fill="white" stroke="#C0C0C0" stroke-width="0.5"/>
<path d="M7.99994 59.1439V61M7.99994 59.1439L9.2627 60.0909M7.99994 59.1439L6.73718 60.0909M7.99994 59.1439V52.8561M7.99994 51V52.8561M7.99994 52.8561L9.2627 51.9091M7.99994 52.8561L6.73718 51.9091M5.20546 54.428L3.55565 53.5M5.20546 54.428L3.73234 55.02M5.20546 54.428L4.9951 52.8891M5.20546 54.428L10.7946 57.572M12.4444 58.5L10.7946 57.572M10.7946 57.572L11.005 59.1109M10.7946 57.572L12.2677 56.98M5.20535 57.572L3.55554 58.5M5.20535 57.572L4.99499 59.1109M5.20535 57.572L3.73223 56.98M5.20535 57.572L10.7945 54.428M12.4443 53.5L10.7945 54.428M10.7945 54.428L12.2676 55.02M10.7945 54.428L11.0049 52.8891" stroke="#C0C0C0" stroke-width="0.7" stroke-linecap="round"/>
<circle cx="25" cy="56" r="7.25" fill="white" stroke="#C0C0C0" stroke-width="0.5"/>
<path d="M24.9999 59.1439V61M24.9999 59.1439L26.2627 60.0909M24.9999 59.1439L23.7372 60.0909M24.9999 59.1439V52.8561M24.9999 51V52.8561M24.9999 52.8561L26.2627 51.9091M24.9999 52.8561L23.7372 51.9091M22.2055 54.428L20.5557 53.5M22.2055 54.428L20.7323 55.02M22.2055 54.428L21.9951 52.8891M22.2055 54.428L27.7946 57.572M29.4444 58.5L27.7946 57.572M27.7946 57.572L28.005 59.1109M27.7946 57.572L29.2677 56.98M22.2054 57.572L20.5555 58.5M22.2054 57.572L21.995 59.1109M22.2054 57.572L20.7322 56.98M22.2054 57.572L27.7945 54.428M29.4443 53.5L27.7945 54.428M27.7945 54.428L29.2676 55.02M27.7945 54.428L28.0049 52.8891" stroke="#C0C0C0" stroke-width="0.7" stroke-linecap="round"/>
<circle cx="42" cy="56" r="7.25" fill="white" stroke="#C0C0C0" stroke-width="0.5"/>
<path d="M41.9999 59.1439V61M41.9999 59.1439L43.2627 60.0909M41.9999 59.1439L40.7372 60.0909M41.9999 59.1439V52.8561M41.9999 51V52.8561M41.9999 52.8561L43.2627 51.9091M41.9999 52.8561L40.7372 51.9091M39.2055 54.428L37.5557 53.5M39.2055 54.428L37.7323 55.02M39.2055 54.428L38.9951 52.8891M39.2055 54.428L44.7946 57.572M46.4444 58.5L44.7946 57.572M44.7946 57.572L45.005 59.1109M44.7946 57.572L46.2677 56.98M39.2054 57.572L37.5555 58.5M39.2054 57.572L38.995 59.1109M39.2054 57.572L37.7322 56.98M39.2054 57.572L44.7945 54.428M46.4443 53.5L44.7945 54.428M44.7945 54.428L46.2676 55.02M44.7945 54.428L45.0049 52.8891" stroke="#C0C0C0" stroke-width="0.7" stroke-linecap="round"/>
</svg>
