<svg width="80" height="40" viewBox="0 0 80 40" fill="none" xmlns="http://www.w3.org/2000/svg">
<path opacity="0.5" d="M63.3438 20.6562C63.5312 20.8438 63.5312 21.1875 63.3438 21.375L58.3438 26.375C58.1562 26.5625 57.8125 26.5625 57.625 26.375C57.4375 26.1875 57.4375 25.8438 57.625 25.6562L62.2812 21L57.625 16.375C57.4375 16.1875 57.4375 15.8438 57.625 15.6562C57.8125 15.4688 58.1562 15.4688 58.3438 15.6562L63.3438 20.6562Z" fill="#382F2D"/>
<path opacity="0.5" d="M23.3438 20.6562C23.5312 20.8438 23.5312 21.1875 23.3438 21.375L18.3438 26.375C18.1562 26.5625 17.8125 26.5625 17.625 26.375C17.4375 26.1875 17.4375 25.8438 17.625 25.6562L22.2812 21L17.625 16.375C17.4375 16.1875 17.4375 15.8438 17.625 15.6562C17.8125 15.4688 18.1562 15.4688 18.3438 15.6562L23.3438 20.6562Z" fill="white"/>
</svg>
