<svg width="85" height="96" viewBox="0 0 85 96" fill="none" xmlns="http://www.w3.org/2000/svg">
<path d="M7.24984 33.3141C7.73797 33.1129 8.28584 33.1129 8.77397 33.3141L13.774 35.3747C14.5231 35.6834 15.0119 36.4136 15.0119 37.2238V42.9847C15.0119 43.8179 14.4954 44.5638 13.7154 44.8569L8.71539 46.7357C8.26188 46.9061 7.76193 46.9061 7.30841 46.7357L2.30841 44.8569C1.52845 44.5638 1.0119 43.8179 1.0119 42.9847V37.2238C1.0119 36.4136 1.50073 35.6834 2.24984 35.3747L7.24984 33.3141Z" fill="#BF0B34"/>
<path d="M13.6119 36.7333L9.41191 38.1333" stroke="white" stroke-width="0.7" stroke-linecap="round"/>
<path d="M8.0119 40.4667V45.1333" stroke="white" stroke-width="0.7" stroke-linecap="round"/>
<path d="M2.4119 36.7333L6.6119 38.1333" stroke="white" stroke-width="0.7" stroke-linecap="round"/>
<path d="M24.2498 33.3141C24.738 33.1129 25.2858 33.1129 25.774 33.3141L30.774 35.3747C31.5231 35.6834 32.0119 36.4136 32.0119 37.2238V42.9847C32.0119 43.8179 31.4954 44.5638 30.7154 44.8569L25.7154 46.7357C25.2619 46.9061 24.7619 46.9061 24.3084 46.7357L19.3084 44.8569C18.5285 44.5638 18.0119 43.8179 18.0119 42.9847V37.2238C18.0119 36.4136 18.5007 35.6834 19.2498 35.3747L24.2498 33.3141Z" fill="#BF0B34"/>
<path d="M30.6119 36.7333L26.4119 38.1333" stroke="white" stroke-width="0.7" stroke-linecap="round"/>
<path d="M25.0119 40.4667V45.1333" stroke="white" stroke-width="0.7" stroke-linecap="round"/>
<path d="M19.4119 36.7333L23.6119 38.1333" stroke="white" stroke-width="0.7" stroke-linecap="round"/>
<path d="M41.2498 33.3141C41.738 33.1129 42.2858 33.1129 42.774 33.3141L47.774 35.3747C48.5231 35.6834 49.0119 36.4136 49.0119 37.2238V42.9847C49.0119 43.8179 48.4954 44.5638 47.7154 44.8569L42.7154 46.7357C42.2619 46.9061 41.7619 46.9061 41.3084 46.7357L36.3084 44.8569C35.5285 44.5638 35.0119 43.8179 35.0119 42.9847V37.2238C35.0119 36.4136 35.5007 35.6834 36.2498 35.3747L41.2498 33.3141Z" fill="#BF0B34"/>
<path d="M47.6119 36.7333L43.4119 38.1333" stroke="white" stroke-width="0.7" stroke-linecap="round"/>
<path d="M42.0119 40.4667V45.1333" stroke="white" stroke-width="0.7" stroke-linecap="round"/>
<path d="M36.4119 36.7333L40.6119 38.1333" stroke="white" stroke-width="0.7" stroke-linecap="round"/>
<path d="M58.1545 33.083C58.7036 32.8567 59.3202 32.8567 59.8693 33.083L64.8693 35.1436C65.712 35.4909 66.2618 36.3122 66.2619 37.2236V42.9844C66.2619 43.9217 65.6804 44.7611 64.8029 45.0908L59.8029 46.9697C59.2929 47.1613 58.7309 47.1613 58.2209 46.9697L53.2209 45.0908C52.3434 44.7611 51.7619 43.9217 51.7619 42.9844V37.2236C51.762 36.3122 52.3118 35.4909 53.1545 35.1436L58.1545 33.083Z" fill="white" stroke="#C0C0C0" stroke-width="0.5"/>
<path d="M64.6119 36.7333L60.4119 38.1333" stroke="#C0C0C0" stroke-width="0.7" stroke-linecap="round"/>
<path d="M59.0119 40.4667V45.1333" stroke="#C0C0C0" stroke-width="0.7" stroke-linecap="round"/>
<path d="M53.4119 36.7333L57.6119 38.1333" stroke="#C0C0C0" stroke-width="0.7" stroke-linecap="round"/>
<path d="M75.1545 33.083C75.7036 32.8567 76.3202 32.8567 76.8693 33.083L81.8693 35.1436C82.712 35.4909 83.2618 36.3122 83.2619 37.2236V42.9844C83.2619 43.9217 82.6804 44.7611 81.8029 45.0908L76.8029 46.9697C76.2929 47.1613 75.7309 47.1613 75.2209 46.9697L70.2209 45.0908C69.3434 44.7611 68.7619 43.9217 68.7619 42.9844V37.2236C68.762 36.3122 69.3118 35.4909 70.1545 35.1436L75.1545 33.083Z" fill="white" stroke="#C0C0C0" stroke-width="0.5"/>
<path d="M81.6119 36.7333L77.4119 38.1333" stroke="#C0C0C0" stroke-width="0.7" stroke-linecap="round"/>
<path d="M76.0119 40.4667V45.1333" stroke="#C0C0C0" stroke-width="0.7" stroke-linecap="round"/>
<path d="M70.4119 36.7333L74.6119 38.1333" stroke="#C0C0C0" stroke-width="0.7" stroke-linecap="round"/>
<path d="M7.24984 17.3141C7.73797 17.1129 8.28584 17.1129 8.77397 17.3141L13.774 19.3747C14.5231 19.6834 15.0119 20.4136 15.0119 21.2238V26.9847C15.0119 27.8179 14.4954 28.5638 13.7154 28.8569L8.71539 30.7357C8.26188 30.9061 7.76193 30.9061 7.30841 30.7357L2.30841 28.8569C1.52845 28.5638 1.0119 27.8179 1.0119 26.9847V21.2238C1.0119 20.4136 1.50073 19.6834 2.24984 19.3747L7.24984 17.3141Z" fill="#BF0B34"/>
<path d="M13.6119 20.7333L9.41191 22.1333" stroke="white" stroke-width="0.7" stroke-linecap="round"/>
<path d="M8.0119 24.4667V29.1333" stroke="white" stroke-width="0.7" stroke-linecap="round"/>
<path d="M2.4119 20.7333L6.6119 22.1333" stroke="white" stroke-width="0.7" stroke-linecap="round"/>
<path d="M24.2498 17.3141C24.738 17.1129 25.2858 17.1129 25.774 17.3141L30.774 19.3747C31.5231 19.6834 32.0119 20.4136 32.0119 21.2238V26.9847C32.0119 27.8179 31.4954 28.5638 30.7154 28.8569L25.7154 30.7357C25.2619 30.9061 24.7619 30.9061 24.3084 30.7357L19.3084 28.8569C18.5285 28.5638 18.0119 27.8179 18.0119 26.9847V21.2238C18.0119 20.4136 18.5007 19.6834 19.2498 19.3747L24.2498 17.3141Z" fill="#BF0B34"/>
<path d="M30.6119 20.7333L26.4119 22.1333" stroke="white" stroke-width="0.7" stroke-linecap="round"/>
<path d="M25.0119 24.4667V29.1333" stroke="white" stroke-width="0.7" stroke-linecap="round"/>
<path d="M19.4119 20.7333L23.6119 22.1333" stroke="white" stroke-width="0.7" stroke-linecap="round"/>
<path d="M41.2498 17.3141C41.738 17.1129 42.2858 17.1129 42.774 17.3141L47.774 19.3747C48.5231 19.6834 49.0119 20.4136 49.0119 21.2238V26.9847C49.0119 27.8179 48.4954 28.5638 47.7154 28.8569L42.7154 30.7357C42.2619 30.9061 41.7619 30.9061 41.3084 30.7357L36.3084 28.8569C35.5285 28.5638 35.0119 27.8179 35.0119 26.9847V21.2238C35.0119 20.4136 35.5007 19.6834 36.2498 19.3747L41.2498 17.3141Z" fill="#BF0B34"/>
<path d="M47.6119 20.7333L43.4119 22.1333" stroke="white" stroke-width="0.7" stroke-linecap="round"/>
<path d="M42.0119 24.4667V29.1333" stroke="white" stroke-width="0.7" stroke-linecap="round"/>
<path d="M36.4119 20.7333L40.6119 22.1333" stroke="white" stroke-width="0.7" stroke-linecap="round"/>
<path d="M58.2498 17.3141C58.738 17.1129 59.2858 17.1129 59.774 17.3141L64.774 19.3747C65.5231 19.6834 66.0119 20.4136 66.0119 21.2238V26.9847C66.0119 27.8179 65.4954 28.5638 64.7154 28.8569L59.7154 30.7357C59.2619 30.9061 58.7619 30.9061 58.3084 30.7357L53.3084 28.8569C52.5285 28.5638 52.0119 27.8179 52.0119 26.9847V21.2238C52.0119 20.4136 52.5007 19.6834 53.2498 19.3747L58.2498 17.3141Z" fill="#BF0B34"/>
<path d="M64.6119 20.7333L60.4119 22.1333" stroke="white" stroke-width="0.7" stroke-linecap="round"/>
<path d="M59.0119 24.4667V29.1333" stroke="white" stroke-width="0.7" stroke-linecap="round"/>
<path d="M53.4119 20.7333L57.6119 22.1333" stroke="white" stroke-width="0.7" stroke-linecap="round"/>
<path d="M75.1545 17.083C75.7036 16.8567 76.3202 16.8567 76.8693 17.083L81.8693 19.1436C82.712 19.4909 83.2618 20.3122 83.2619 21.2236V26.9844C83.2619 27.9217 82.6804 28.7611 81.8029 29.0908L76.8029 30.9697C76.2929 31.1613 75.7309 31.1613 75.2209 30.9697L70.2209 29.0908C69.3434 28.7611 68.7619 27.9217 68.7619 26.9844V21.2236C68.762 20.3122 69.3118 19.4909 70.1545 19.1436L75.1545 17.083Z" fill="white" stroke="#C0C0C0" stroke-width="0.5"/>
<path d="M81.6119 20.7333L77.4119 22.1333" stroke="#C0C0C0" stroke-width="0.7" stroke-linecap="round"/>
<path d="M76.0119 24.4667V29.1333" stroke="#C0C0C0" stroke-width="0.7" stroke-linecap="round"/>
<path d="M70.4119 20.7333L74.6119 22.1333" stroke="#C0C0C0" stroke-width="0.7" stroke-linecap="round"/>
<path d="M7.24984 1.31406C7.73797 1.11289 8.28584 1.11289 8.77397 1.31406L13.774 3.37467C14.5231 3.68339 15.0119 4.41357 15.0119 5.22379V10.9847C15.0119 11.8179 14.4954 12.5638 13.7154 12.8569L8.71539 14.7357C8.26188 14.9061 7.76193 14.9061 7.30841 14.7357L2.30841 12.8569C1.52845 12.5638 1.0119 11.8179 1.0119 10.9847V5.22379C1.0119 4.41357 1.50073 3.68339 2.24984 3.37467L7.24984 1.31406Z" fill="#BF0B34"/>
<path d="M13.6119 4.73334L9.41191 6.13334" stroke="white" stroke-width="0.7" stroke-linecap="round"/>
<path d="M8.0119 8.46667V13.1333" stroke="white" stroke-width="0.7" stroke-linecap="round"/>
<path d="M2.4119 4.73334L6.6119 6.13334" stroke="white" stroke-width="0.7" stroke-linecap="round"/>
<path d="M24.2498 1.31406C24.738 1.11289 25.2858 1.11289 25.774 1.31406L30.774 3.37467C31.5231 3.68339 32.0119 4.41357 32.0119 5.22379V10.9847C32.0119 11.8179 31.4954 12.5638 30.7154 12.8569L25.7154 14.7357C25.2619 14.9061 24.7619 14.9061 24.3084 14.7357L19.3084 12.8569C18.5285 12.5638 18.0119 11.8179 18.0119 10.9847V5.22379C18.0119 4.41357 18.5007 3.68339 19.2498 3.37467L24.2498 1.31406Z" fill="#BF0B34"/>
<path d="M30.6119 4.73334L26.4119 6.13334" stroke="white" stroke-width="0.7" stroke-linecap="round"/>
<path d="M25.0119 8.46667V13.1333" stroke="white" stroke-width="0.7" stroke-linecap="round"/>
<path d="M19.4119 4.73334L23.6119 6.13334" stroke="white" stroke-width="0.7" stroke-linecap="round"/>
<path d="M41.2498 1.31406C41.738 1.11289 42.2858 1.11289 42.774 1.31406L47.774 3.37467C48.5231 3.68339 49.0119 4.41357 49.0119 5.22379V10.9847C49.0119 11.8179 48.4954 12.5638 47.7154 12.8569L42.7154 14.7357C42.2619 14.9061 41.7619 14.9061 41.3084 14.7357L36.3084 12.8569C35.5285 12.5638 35.0119 11.8179 35.0119 10.9847V5.22379C35.0119 4.41357 35.5007 3.68339 36.2498 3.37467L41.2498 1.31406Z" fill="#BF0B34"/>
<path d="M47.6119 4.73334L43.4119 6.13334" stroke="white" stroke-width="0.7" stroke-linecap="round"/>
<path d="M42.0119 8.46667V13.1333" stroke="white" stroke-width="0.7" stroke-linecap="round"/>
<path d="M36.4119 4.73334L40.6119 6.13334" stroke="white" stroke-width="0.7" stroke-linecap="round"/>
<path d="M58.2498 1.31406C58.738 1.11289 59.2858 1.11289 59.774 1.31406L64.774 3.37467C65.5231 3.68339 66.0119 4.41357 66.0119 5.22379V10.9847C66.0119 11.8179 65.4954 12.5638 64.7154 12.8569L59.7154 14.7357C59.2619 14.9061 58.7619 14.9061 58.3084 14.7357L53.3084 12.8569C52.5285 12.5638 52.0119 11.8179 52.0119 10.9847V5.22379C52.0119 4.41357 52.5007 3.68339 53.2498 3.37467L58.2498 1.31406Z" fill="#BF0B34"/>
<path d="M64.6119 4.73334L60.4119 6.13334" stroke="white" stroke-width="0.7" stroke-linecap="round"/>
<path d="M59.0119 8.46667V13.1333" stroke="white" stroke-width="0.7" stroke-linecap="round"/>
<path d="M53.4119 4.73334L57.6119 6.13334" stroke="white" stroke-width="0.7" stroke-linecap="round"/>
<path d="M75.2498 1.31406C75.738 1.11289 76.2858 1.11289 76.774 1.31406L81.774 3.37467C82.5231 3.68339 83.0119 4.41357 83.0119 5.22379V10.9847C83.0119 11.8179 82.4954 12.5638 81.7154 12.8569L76.7154 14.7357C76.2619 14.9061 75.7619 14.9061 75.3084 14.7357L70.3084 12.8569C69.5285 12.5638 69.0119 11.8179 69.0119 10.9847V5.22379C69.0119 4.41357 69.5007 3.68339 70.2498 3.37467L75.2498 1.31406Z" fill="#BF0B34"/>
<path d="M81.6119 4.73334L77.4119 6.13334" stroke="white" stroke-width="0.7" stroke-linecap="round"/>
<path d="M76.0119 8.46667V13.1333" stroke="white" stroke-width="0.7" stroke-linecap="round"/>
<path d="M70.4119 4.73334L74.6119 6.13334" stroke="white" stroke-width="0.7" stroke-linecap="round"/>
<path d="M7.24984 49.3141C7.73797 49.1129 8.28584 49.1129 8.77397 49.3141L13.774 51.3747C14.5231 51.6834 15.0119 52.4136 15.0119 53.2238V58.9847C15.0119 59.8179 14.4954 60.5638 13.7154 60.8569L8.71539 62.7357C8.26188 62.9061 7.76193 62.9061 7.30841 62.7357L2.30841 60.8569C1.52845 60.5638 1.0119 59.8179 1.0119 58.9847V53.2238C1.0119 52.4136 1.50073 51.6834 2.24984 51.3747L7.24984 49.3141Z" fill="#BF0B34"/>
<path d="M13.6119 52.7333L9.41191 54.1333" stroke="white" stroke-width="0.7" stroke-linecap="round"/>
<path d="M8.0119 56.4667V61.1333" stroke="white" stroke-width="0.7" stroke-linecap="round"/>
<path d="M2.4119 52.7333L6.6119 54.1333" stroke="white" stroke-width="0.7" stroke-linecap="round"/>
<path d="M24.2498 49.3141C24.738 49.1129 25.2858 49.1129 25.774 49.3141L30.774 51.3747C31.5231 51.6834 32.0119 52.4136 32.0119 53.2238V58.9847C32.0119 59.8179 31.4954 60.5638 30.7154 60.8569L25.7154 62.7357C25.2619 62.9061 24.7619 62.9061 24.3084 62.7357L19.3084 60.8569C18.5285 60.5638 18.0119 59.8179 18.0119 58.9847V53.2238C18.0119 52.4136 18.5007 51.6834 19.2498 51.3747L24.2498 49.3141Z" fill="#BF0B34"/>
<path d="M30.6119 52.7333L26.4119 54.1333" stroke="white" stroke-width="0.7" stroke-linecap="round"/>
<path d="M25.0119 56.4667V61.1333" stroke="white" stroke-width="0.7" stroke-linecap="round"/>
<path d="M19.4119 52.7333L23.6119 54.1333" stroke="white" stroke-width="0.7" stroke-linecap="round"/>
<path d="M41.1545 49.083C41.7036 48.8567 42.3202 48.8567 42.8693 49.083L47.8693 51.1436C48.712 51.4909 49.2618 52.3122 49.2619 53.2236V58.9844C49.2619 59.9217 48.6804 60.7611 47.8029 61.0908L42.8029 62.9697C42.2929 63.1613 41.7309 63.1613 41.2209 62.9697L36.2209 61.0908C35.3434 60.7611 34.7619 59.9217 34.7619 58.9844V53.2236C34.762 52.3122 35.3118 51.4909 36.1545 51.1436L41.1545 49.083Z" fill="white" stroke="#C0C0C0" stroke-width="0.5"/>
<path d="M47.6119 52.7333L43.4119 54.1333" stroke="#C0C0C0" stroke-width="0.7" stroke-linecap="round"/>
<path d="M42.0119 56.4667V61.1333" stroke="#C0C0C0" stroke-width="0.7" stroke-linecap="round"/>
<path d="M36.4119 52.7333L40.6119 54.1333" stroke="#C0C0C0" stroke-width="0.7" stroke-linecap="round"/>
<path d="M58.1545 49.083C58.7036 48.8567 59.3202 48.8567 59.8693 49.083L64.8693 51.1436C65.712 51.4909 66.2618 52.3122 66.2619 53.2236V58.9844C66.2619 59.9217 65.6804 60.7611 64.8029 61.0908L59.8029 62.9697C59.2929 63.1613 58.7309 63.1613 58.2209 62.9697L53.2209 61.0908C52.3434 60.7611 51.7619 59.9217 51.7619 58.9844V53.2236C51.762 52.3122 52.3118 51.4909 53.1545 51.1436L58.1545 49.083Z" fill="white" stroke="#C0C0C0" stroke-width="0.5"/>
<path d="M64.6119 52.7333L60.4119 54.1333" stroke="#C0C0C0" stroke-width="0.7" stroke-linecap="round"/>
<path d="M59.0119 56.4667V61.1333" stroke="#C0C0C0" stroke-width="0.7" stroke-linecap="round"/>
<path d="M53.4119 52.7333L57.6119 54.1333" stroke="#C0C0C0" stroke-width="0.7" stroke-linecap="round"/>
<path d="M75.1545 49.083C75.7036 48.8567 76.3202 48.8567 76.8693 49.083L81.8693 51.1436C82.712 51.4909 83.2618 52.3122 83.2619 53.2236V58.9844C83.2619 59.9217 82.6804 60.7611 81.8029 61.0908L76.8029 62.9697C76.2929 63.1613 75.7309 63.1613 75.2209 62.9697L70.2209 61.0908C69.3434 60.7611 68.7619 59.9217 68.7619 58.9844V53.2236C68.762 52.3122 69.3118 51.4909 70.1545 51.1436L75.1545 49.083Z" fill="white" stroke="#C0C0C0" stroke-width="0.5"/>
<path d="M81.6119 52.7333L77.4119 54.1333" stroke="#C0C0C0" stroke-width="0.7" stroke-linecap="round"/>
<path d="M76.0119 56.4667V61.1333" stroke="#C0C0C0" stroke-width="0.7" stroke-linecap="round"/>
<path d="M70.4119 52.7333L74.6119 54.1333" stroke="#C0C0C0" stroke-width="0.7" stroke-linecap="round"/>
<path d="M7.24984 65.3141C7.73797 65.1129 8.28584 65.1129 8.77397 65.3141L13.774 67.3747C14.5231 67.6834 15.0119 68.4136 15.0119 69.2238V74.9847C15.0119 75.8179 14.4954 76.5638 13.7154 76.8569L8.71539 78.7357C8.26188 78.9061 7.76193 78.9061 7.30841 78.7357L2.30841 76.8569C1.52845 76.5638 1.0119 75.8179 1.0119 74.9847V69.2238C1.0119 68.4136 1.50073 67.6834 2.24984 67.3747L7.24984 65.3141Z" fill="#BF0B34"/>
<path d="M13.6119 68.7333L9.41191 70.1333" stroke="white" stroke-width="0.7" stroke-linecap="round"/>
<path d="M8.0119 72.4667V77.1333" stroke="white" stroke-width="0.7" stroke-linecap="round"/>
<path d="M2.4119 68.7333L6.6119 70.1333" stroke="white" stroke-width="0.7" stroke-linecap="round"/>
<path d="M24.1545 65.083C24.7036 64.8567 25.3202 64.8567 25.8693 65.083L30.8693 67.1436C31.712 67.4909 32.2618 68.3122 32.2619 69.2236V74.9844C32.2619 75.9217 31.6804 76.7611 30.8029 77.0908L25.8029 78.9697C25.2929 79.1613 24.7309 79.1613 24.2209 78.9697L19.2209 77.0908C18.3434 76.7611 17.7619 75.9217 17.7619 74.9844V69.2236C17.762 68.3122 18.3118 67.4909 19.1545 67.1436L24.1545 65.083Z" fill="white" stroke="#C0C0C0" stroke-width="0.5"/>
<path d="M30.6119 68.7333L26.4119 70.1333" stroke="#C0C0C0" stroke-width="0.7" stroke-linecap="round"/>
<path d="M25.0119 72.4667V77.1333" stroke="#C0C0C0" stroke-width="0.7" stroke-linecap="round"/>
<path d="M19.4119 68.7333L23.6119 70.1333" stroke="#C0C0C0" stroke-width="0.7" stroke-linecap="round"/>
<path d="M41.1545 65.083C41.7036 64.8567 42.3202 64.8567 42.8693 65.083L47.8693 67.1436C48.712 67.4909 49.2618 68.3122 49.2619 69.2236V74.9844C49.2619 75.9217 48.6804 76.7611 47.8029 77.0908L42.8029 78.9697C42.2929 79.1613 41.7309 79.1613 41.2209 78.9697L36.2209 77.0908C35.3434 76.7611 34.7619 75.9217 34.7619 74.9844V69.2236C34.762 68.3122 35.3118 67.4909 36.1545 67.1436L41.1545 65.083Z" fill="white" stroke="#C0C0C0" stroke-width="0.5"/>
<path d="M47.6119 68.7333L43.4119 70.1333" stroke="#C0C0C0" stroke-width="0.7" stroke-linecap="round"/>
<path d="M42.0119 72.4667V77.1333" stroke="#C0C0C0" stroke-width="0.7" stroke-linecap="round"/>
<path d="M36.4119 68.7333L40.6119 70.1333" stroke="#C0C0C0" stroke-width="0.7" stroke-linecap="round"/>
<path d="M58.1545 65.083C58.7036 64.8567 59.3202 64.8567 59.8693 65.083L64.8693 67.1436C65.712 67.4909 66.2618 68.3122 66.2619 69.2236V74.9844C66.2619 75.9217 65.6804 76.7611 64.8029 77.0908L59.8029 78.9697C59.2929 79.1613 58.7309 79.1613 58.2209 78.9697L53.2209 77.0908C52.3434 76.7611 51.7619 75.9217 51.7619 74.9844V69.2236C51.762 68.3122 52.3118 67.4909 53.1545 67.1436L58.1545 65.083Z" fill="white" stroke="#C0C0C0" stroke-width="0.5"/>
<path d="M64.6119 68.7333L60.4119 70.1333" stroke="#C0C0C0" stroke-width="0.7" stroke-linecap="round"/>
<path d="M59.0119 72.4667V77.1333" stroke="#C0C0C0" stroke-width="0.7" stroke-linecap="round"/>
<path d="M53.4119 68.7333L57.6119 70.1333" stroke="#C0C0C0" stroke-width="0.7" stroke-linecap="round"/>
<path d="M75.1545 65.083C75.7036 64.8567 76.3202 64.8567 76.8693 65.083L81.8693 67.1436C82.712 67.4909 83.2618 68.3122 83.2619 69.2236V74.9844C83.2619 75.9217 82.6804 76.7611 81.8029 77.0908L76.8029 78.9697C76.2929 79.1613 75.7309 79.1613 75.2209 78.9697L70.2209 77.0908C69.3434 76.7611 68.7619 75.9217 68.7619 74.9844V69.2236C68.762 68.3122 69.3118 67.4909 70.1545 67.1436L75.1545 65.083Z" fill="white" stroke="#C0C0C0" stroke-width="0.5"/>
<path d="M81.6119 68.7333L77.4119 70.1333" stroke="#C0C0C0" stroke-width="0.7" stroke-linecap="round"/>
<path d="M76.0119 72.4667V77.1333" stroke="#C0C0C0" stroke-width="0.7" stroke-linecap="round"/>
<path d="M70.4119 68.7333L74.6119 70.1333" stroke="#C0C0C0" stroke-width="0.7" stroke-linecap="round"/>
<path d="M7.15448 81.083C7.70362 80.8567 8.32018 80.8567 8.86932 81.083L13.8693 83.1436C14.712 83.4909 15.2618 84.3122 15.2619 85.2236V90.9844C15.2619 91.9217 14.6804 92.7611 13.8029 93.0908L8.80292 94.9697C8.29294 95.1613 7.73086 95.1613 7.22089 94.9697L2.22089 93.0908C1.34343 92.7611 0.761902 91.9217 0.761902 90.9844V85.2236C0.761966 84.3122 1.31184 83.4909 2.15448 83.1436L7.15448 81.083Z" fill="white" stroke="#C0C0C0" stroke-width="0.5"/>
<path d="M13.6119 84.7333L9.41191 86.1333" stroke="#C0C0C0" stroke-width="0.7" stroke-linecap="round"/>
<path d="M8.0119 88.4667V93.1333" stroke="#C0C0C0" stroke-width="0.7" stroke-linecap="round"/>
<path d="M2.4119 84.7333L6.6119 86.1333" stroke="#C0C0C0" stroke-width="0.7" stroke-linecap="round"/>
<path d="M24.1545 81.083C24.7036 80.8567 25.3202 80.8567 25.8693 81.083L30.8693 83.1436C31.712 83.4909 32.2618 84.3122 32.2619 85.2236V90.9844C32.2619 91.9217 31.6804 92.7611 30.8029 93.0908L25.8029 94.9697C25.2929 95.1613 24.7309 95.1613 24.2209 94.9697L19.2209 93.0908C18.3434 92.7611 17.7619 91.9217 17.7619 90.9844V85.2236C17.762 84.3122 18.3118 83.4909 19.1545 83.1436L24.1545 81.083Z" fill="white" stroke="#C0C0C0" stroke-width="0.5"/>
<path d="M30.6119 84.7333L26.4119 86.1333" stroke="#C0C0C0" stroke-width="0.7" stroke-linecap="round"/>
<path d="M25.0119 88.4667V93.1333" stroke="#C0C0C0" stroke-width="0.7" stroke-linecap="round"/>
<path d="M19.4119 84.7333L23.6119 86.1333" stroke="#C0C0C0" stroke-width="0.7" stroke-linecap="round"/>
<path d="M41.1545 81.083C41.7036 80.8567 42.3202 80.8567 42.8693 81.083L47.8693 83.1436C48.712 83.4909 49.2618 84.3122 49.2619 85.2236V90.9844C49.2619 91.9217 48.6804 92.7611 47.8029 93.0908L42.8029 94.9697C42.2929 95.1613 41.7309 95.1613 41.2209 94.9697L36.2209 93.0908C35.3434 92.7611 34.7619 91.9217 34.7619 90.9844V85.2236C34.762 84.3122 35.3118 83.4909 36.1545 83.1436L41.1545 81.083Z" fill="white" stroke="#C0C0C0" stroke-width="0.5"/>
<path d="M47.6119 84.7333L43.4119 86.1333" stroke="#C0C0C0" stroke-width="0.7" stroke-linecap="round"/>
<path d="M42.0119 88.4667V93.1333" stroke="#C0C0C0" stroke-width="0.7" stroke-linecap="round"/>
<path d="M36.4119 84.7333L40.6119 86.1333" stroke="#C0C0C0" stroke-width="0.7" stroke-linecap="round"/>
<path d="M58.1545 81.083C58.7036 80.8567 59.3202 80.8567 59.8693 81.083L64.8693 83.1436C65.712 83.4909 66.2618 84.3122 66.2619 85.2236V90.9844C66.2619 91.9217 65.6804 92.7611 64.8029 93.0908L59.8029 94.9697C59.2929 95.1613 58.7309 95.1613 58.2209 94.9697L53.2209 93.0908C52.3434 92.7611 51.7619 91.9217 51.7619 90.9844V85.2236C51.762 84.3122 52.3118 83.4909 53.1545 83.1436L58.1545 81.083Z" fill="white" stroke="#C0C0C0" stroke-width="0.5"/>
<path d="M64.6119 84.7333L60.4119 86.1333" stroke="#C0C0C0" stroke-width="0.7" stroke-linecap="round"/>
<path d="M59.0119 88.4667V93.1333" stroke="#C0C0C0" stroke-width="0.7" stroke-linecap="round"/>
<path d="M53.4119 84.7333L57.6119 86.1333" stroke="#C0C0C0" stroke-width="0.7" stroke-linecap="round"/>
<path d="M75.1545 81.083C75.7036 80.8567 76.3202 80.8567 76.8693 81.083L81.8693 83.1436C82.712 83.4909 83.2618 84.3122 83.2619 85.2236V90.9844C83.2619 91.9217 82.6804 92.7611 81.8029 93.0908L76.8029 94.9697C76.2929 95.1613 75.7309 95.1613 75.2209 94.9697L70.2209 93.0908C69.3434 92.7611 68.7619 91.9217 68.7619 90.9844V85.2236C68.762 84.3122 69.3118 83.4909 70.1545 83.1436L75.1545 81.083Z" fill="white" stroke="#C0C0C0" stroke-width="0.5"/>
<path d="M81.6119 84.7333L77.4119 86.1333" stroke="#C0C0C0" stroke-width="0.7" stroke-linecap="round"/>
<path d="M76.0119 88.4667V93.1333" stroke="#C0C0C0" stroke-width="0.7" stroke-linecap="round"/>
<path d="M70.4119 84.7333L74.6119 86.1333" stroke="#C0C0C0" stroke-width="0.7" stroke-linecap="round"/>
</svg>
